<?xml version="1.0" encoding="UTF-8"?>
<!DOCTYPE svg PUBLIC "-//W3C//DTD SVG 1.1//EN" "http://www.w3.org/Graphics/SVG/1.1/DTD/svg11.dtd">
<!-- Creator: CorelDRAW -->
<svg xmlns="http://www.w3.org/2000/svg" xml:space="preserve" width="10.9638mm" height="13.2597mm" version="1.1" style="shape-rendering:geometricPrecision; text-rendering:geometricPrecision; image-rendering:optimizeQuality; fill-rule:evenodd; clip-rule:evenodd"
viewBox="0 0 111.92 135.35"
 xmlns:xlink="http://www.w3.org/1999/xlink"
 xmlns:xodm="http://www.corel.com/coreldraw/odm/2003">
 <defs>
  <style type="text/css">
   <![CDATA[
    .fil1 {fill:#34C28C}
    .fil0 {fill:white}
   ]]>
  </style>
 </defs>
 <g id="Camada_x0020_1">
  <metadata id="CorelCorpID_0Corel-Layer"/>
  <g id="_2221188334624">
   <path class="fil0" d="M79.88 0c-19.16,0 -32.01,11.16 -32.01,32.8l-0.07 33.69 15.62 0 0 -33.69c0,-12.33 6.68,-18.23 16.51,-18.23 9.83,0 16.38,5.9 16.38,18.23l0 33.69 15.62 0 0 -33.69c0,-21.77 -12.87,-32.8 -32.03,-32.8zm-56.5 114.27l11.15 11.14 -9.93 9.94 -24.07 -24.07 0 -9.94 24.07 -24.07 9.93 9.93 -11.61 11.62 51.57 0c2.88,-0.01 5.72,-0.58 8.37,-1.69 2.65,-1.11 5.06,-2.73 7.09,-4.77 2.02,-2.04 3.62,-4.46 4.71,-7.13 1.09,-2.66 1.64,-5.51 1.62,-8.39l0 -10.35 15.63 0 0 10.35c-0.01,9.93 -3.96,19.45 -10.99,26.47 -7.03,7.02 -16.56,10.96 -26.49,10.95l-51.06 0z"/>
   <polygon class="fil1" points="36.37,66.49 23.27,66.49 -0,46.39 23.27,16.12 36.37,16.12 13.1,45.93 "/>
  </g>
 </g>
</svg>
