<?xml version="1.0" encoding="UTF-8"?>
<!DOCTYPE svg PUBLIC "-//W3C//DTD SVG 1.1//EN" "http://www.w3.org/Graphics/SVG/1.1/DTD/svg11.dtd">
<!-- Creator: CorelDRAW -->
<svg xmlns="http://www.w3.org/2000/svg" xml:space="preserve" width="130.278mm" height="110.644mm" version="1.1" style="shape-rendering:geometricPrecision; text-rendering:geometricPrecision; image-rendering:optimizeQuality; fill-rule:evenodd; clip-rule:evenodd"
viewBox="0 0 644.85 547.67"
 xmlns:xlink="http://www.w3.org/1999/xlink"
 xmlns:xodm="http://www.corel.com/coreldraw/odm/2003">
 <defs>
  <style type="text/css">
   <![CDATA[
    .fil0 {fill:#6ACEA8}
   ]]>
  </style>
 </defs>
 <g id="Camada_x0020_1">
  <metadata id="CorelCorpID_0Corel-Layer"/>
  <path class="fil0" d="M108.43 6.11l-98.85 98.93c-5.12,5.12 -9.58,9.8 -9.58,17.42 0,5.23 0.2,11.97 3.18,16.52 3.73,5.7 12.29,12.95 17.23,17.9l74.25 74.25c8.5,8.5 16.7,20.41 29.78,20.41 13.12,0 26.98,-13.87 26.98,-26.98 0,-5.77 -0.95,-9.14 -4.72,-13.44 -7.03,-8.03 -14.27,-13.21 -20.6,-22.67l-25.08 -37.45 45.07 0c48.48,0 96.98,-0.42 145.47,-0.51 30.77,-0.05 61.54,-0.08 92.31,0.12 10.83,0.07 21.66,0.15 32.49,0.38 5.89,0.12 12.88,0.07 18.69,0.91 11.2,1.62 21.9,2.9 32.9,5.72 47.72,12.22 93.45,51.28 111.55,97.25 19.55,49.64 19.03,88.97 -0.43,138.5 -7.78,19.81 -20.88,37.06 -35.83,52.01 -14.95,14.95 -32.21,28.05 -52.01,35.83 -10.97,4.31 -19.92,7.84 -31.63,10.36 -11.52,2.48 -26.06,4.47 -37.81,4.61 -24.87,0.3 -49.74,-0.06 -74.6,-0.06 -9.99,0 -22.46,-0.81 -32.25,0.59 -5.73,0.82 -9.14,2.65 -13.59,6.45 -7.43,6.33 -8.1,18.25 -5.33,26.95 3.27,10.26 10.66,16.88 21.79,16.88 27.79,0 55.54,0.96 83.34,0.62 23.38,-0.29 51.38,-1.05 74.07,-6.76 29.46,-7.41 49.22,-17.51 74.34,-34.11 53.06,-35.06 95.31,-108.26 95.31,-172.35 0,-36.78 -1.27,-56.63 -14.53,-91.3 -19.13,-50.01 -53.87,-87.61 -99.62,-114.74 -61.29,-36.34 -126.29,-28.22 -194.36,-28.22 -63.42,0 -126.84,0 -190.26,0l-45.07 0 25.08 -37.45c7.81,-11.66 25.32,-21.25 25.32,-36.11 0,-22.49 -28.33,-34.68 -42.99,-20.44z"/>
 </g>
</svg>
