<svg width="107" height="99" viewBox="0 0 107 99" fill="none" xmlns="http://www.w3.org/2000/svg">
<g clip-path="url(#clip0_116_78)" filter="url(#filter0_d_116_78)">
<path d="M27.6285 12.8197C27.2805 12.9551 26.7004 13.3031 26.333 13.5932C24.9602 14.6953 24.8055 15.1207 23.4326 21.7529C22.7365 25.1561 22.0985 28.0951 22.0598 28.2691C21.9631 28.5978 21.4604 28.6172 14.8281 28.6172H7.71252L6.68772 29.1586C5.52756 29.758 4.50276 30.9568 4.19338 32.059C3.92268 33.0451 3.92268 82.0037 4.19338 82.9898C4.52209 84.1307 5.52756 85.3102 6.68772 85.8902L7.7512 86.4316H44.0061C78.6948 86.4316 80.319 86.4123 81.0537 86.0643C82.1946 85.5615 83.0067 84.7881 83.4707 83.8213C83.7028 83.3379 83.9928 82.9512 84.0895 82.9512C84.2055 82.9512 85.1916 83.1445 86.2938 83.3766C88.0534 83.7439 88.4207 83.7633 89.3682 83.5506C90.8184 83.2219 91.9399 82.3518 92.5973 81.0176C93.0033 80.1861 94.1635 74.8881 98.0887 55.9775C103.387 30.3381 103.271 31.0535 102.439 29.4293C101.975 28.5205 100.68 27.3603 99.8289 27.0896C99.3262 26.9156 84.8049 23.8992 45.8623 15.8361C42.7879 15.198 39.2494 14.4633 38.0313 14.2119C29.7362 12.4523 28.9434 12.3557 27.6285 12.8197ZM64.0768 22.043C83.084 25.9875 98.8815 29.2939 99.1908 29.41C99.7903 29.6613 100.37 30.3961 100.544 31.1309C100.641 31.5369 99.5196 37.7824 99.3069 37.9951C99.2489 38.0338 96.2711 37.4537 92.6553 36.7189C89.0395 35.9842 85.617 35.2881 85.0756 35.1721L84.0508 34.9787V33.9539C84.0508 31.6916 83.084 30.0094 81.3051 29.1199L80.2996 28.6172H66.6871H53.0746L45.0309 26.9736C30.2969 23.9379 25.7723 22.9904 25.6949 22.9131C25.5789 22.7971 26.8164 17.0156 27.1258 16.3002C27.3965 15.6234 28.402 14.8887 29.0787 14.8887C29.3108 14.8887 45.0502 18.1178 64.0768 22.043ZM32.7332 26.8769C36.8711 27.7277 40.3516 28.4625 40.4483 28.5012C40.5643 28.5592 37.0065 28.5978 32.5399 28.5978L24.4574 28.6172L24.5928 27.8824C24.8248 26.5869 25.1149 25.3301 25.1535 25.3301C25.1922 25.3301 28.5953 26.0262 32.7332 26.8769ZM80.7444 31.5949C81.0731 31.9236 81.4405 32.4844 81.5371 32.8518C81.7885 33.7992 81.7885 81.2496 81.5371 82.1971C81.4405 82.5645 81.0731 83.1252 80.7444 83.4539L80.1643 84.0146L44.2961 84.0727C3.96135 84.1113 7.40315 84.2467 6.68772 82.6805C6.33967 81.9264 6.32034 80.8242 6.32034 57.5244C6.32034 34.2633 6.33967 33.1225 6.68772 32.3684C7.40315 30.8021 3.94202 30.9375 44.2575 30.9955L80.1643 31.0342L80.7444 31.5949ZM97.3733 40.1414L98.7848 40.4508L98.6688 41.1469C98.6108 41.5529 98.2821 43.1771 97.9534 44.7627L97.3539 47.6824L90.7024 46.4062L84.0508 45.1494V41.2629V37.3957L90.0063 38.6139C93.2741 39.2713 96.5805 39.9674 97.3733 40.1414ZM90.7217 48.8426C93.9121 49.442 96.5998 50.0027 96.6772 50.0801C96.8705 50.2541 90.8957 79.142 90.4897 80.0121C90.1223 80.7662 89.2715 81.2689 88.3241 81.2496C87.9373 81.2303 86.8545 81.0562 85.8877 80.8629L84.1475 80.4955L84.0895 64.002L84.0508 47.5277L84.4762 47.6244C84.7276 47.6824 87.5313 48.2238 90.7217 48.8426Z" fill="#6ACEA8"/>
<path d="M55.627 37.125V38.8652H56.7871H57.9473V37.125V35.3848H56.7871H55.627V37.125Z" fill="#6ACEA8"/>
<path d="M60.4609 37.125V38.8652H61.6211H62.7812V37.125V35.3848H61.6211H60.4609V37.125Z" fill="#6ACEA8"/>
<path d="M66.2617 37.125V38.8652H67.4219H68.582V37.125V35.3848H67.4219H66.2617V37.125Z" fill="#6ACEA8"/>
<path d="M71.0957 37.125V38.8652H72.2559H73.416V37.125V35.3848H72.2559H71.0957V37.125Z" fill="#6ACEA8"/>
<path d="M15.4662 38.5752C14.248 39.0973 14.0547 39.7354 14.0547 43.1385C14.0547 45.9035 14.0934 46.1936 14.4607 46.677C15.2342 47.6631 15.6789 47.7598 19.4301 47.7598C22.7172 47.7598 22.9299 47.7404 23.5486 47.315C24.5734 46.6189 24.6895 46.2322 24.6895 43.0225C24.6895 38.4979 24.4381 38.2852 19.3334 38.2852C16.9937 38.3045 15.9109 38.3818 15.4662 38.5752ZM22.3305 43.0611L22.3885 45.4395H19.3721H16.375V43.1578C16.375 41.901 16.433 40.7988 16.5104 40.7215C16.5877 40.6635 17.9025 40.6248 19.4494 40.6441L22.2725 40.7021L22.3305 43.0611Z" fill="#6ACEA8"/>
<path d="M10.8063 70.6148L10.8643 71.833H12.6045H14.3448V70.6729V69.5127L12.5465 69.4547L10.7483 69.3967L10.8063 70.6148Z" fill="#6ACEA8"/>
<path d="M16.6071 70.6148L16.6651 71.833L18.3667 71.891L20.0489 71.949V70.6728V69.416H18.3086H16.5491L16.6071 70.6148Z" fill="#6ACEA8"/>
<path d="M22.4079 70.6148L22.4659 71.833H24.2061H25.9463L26.0043 70.6148L26.0624 69.416H24.2061H22.3499L22.4079 70.6148Z" fill="#6ACEA8"/>
<path d="M28.2086 70.6148L28.2667 71.833H30.0069H31.7471V70.6729V69.5127L29.9489 69.4547L28.1506 69.3967L28.2086 70.6148Z" fill="#6ACEA8"/>
<path d="M34.048 69.6867C33.99 69.8221 33.9707 70.3635 34.0094 70.8855L34.0674 71.833H35.8076H37.5479L37.6059 70.6148L37.6639 69.416H35.9043C34.5895 69.416 34.1254 69.474 34.048 69.6867Z" fill="#6ACEA8"/>
<path d="M10.7676 78.5039V79.6641H24.2061H37.6445V78.5039V77.3438H24.2061H10.7676V78.5039Z" fill="#6ACEA8"/>
</g>
<defs>
<filter id="filter0_d_116_78" x="0" y="0" width="107" height="107" filterUnits="userSpaceOnUse" color-interpolation-filters="sRGB">
<feFlood flood-opacity="0" result="BackgroundImageFix"/>
<feColorMatrix in="SourceAlpha" type="matrix" values="0 0 0 0 0 0 0 0 0 0 0 0 0 0 0 0 0 0 127 0" result="hardAlpha"/>
<feOffset dy="4"/>
<feGaussianBlur stdDeviation="2"/>
<feComposite in2="hardAlpha" operator="out"/>
<feColorMatrix type="matrix" values="0 0 0 0 0 0 0 0 0 0 0 0 0 0 0 0 0 0 0.25 0"/>
<feBlend mode="normal" in2="BackgroundImageFix" result="effect1_dropShadow_116_78"/>
<feBlend mode="normal" in="SourceGraphic" in2="effect1_dropShadow_116_78" result="shape"/>
</filter>
<clipPath id="clip0_116_78">
<rect width="99" height="99" fill="white" transform="translate(4)"/>
</clipPath>
</defs>
</svg>
