<svg width="292" height="235" viewBox="0 0 292 235" fill="none" xmlns="http://www.w3.org/2000/svg">
<path fill-rule="evenodd" clip-rule="evenodd" d="M59.06 70.4916H273.914C283.459 70.4916 291.267 78.2996 291.267 87.8448V217.298C291.267 226.843 283.459 234.651 273.914 234.651H59.06C49.5148 234.651 41.7068 226.843 41.7068 217.298V87.8448C41.7068 78.2996 49.5148 70.4916 59.06 70.4916ZM53.7072 131.398H282.549V213.292C282.549 219.247 277.677 224.119 271.722 224.119H64.5345C58.5792 224.119 53.7072 219.247 53.7072 213.292V131.398ZM215.822 162.976H250.894C257.029 162.976 262.042 167.995 262.042 174.124V195.188C262.042 201.323 257.022 206.336 250.894 206.336H215.822C209.687 206.336 204.674 201.317 204.674 195.188V174.124C204.674 167.989 209.694 162.976 215.822 162.976ZM52.111 101.993H280.953V91.1654C280.953 85.2101 276.081 80.3381 270.125 80.3381H62.9383C56.983 80.3381 52.111 85.2101 52.111 91.1654V101.993Z" fill="#6ACEA8"/>
<path fill-rule="evenodd" clip-rule="evenodd" d="M14.5134 35.4133L226.47 0.238979C235.887 -1.32518 244.868 5.10454 246.432 14.5216L253.676 58.1834L49.4505 61.0168C39.9053 61.1515 32.2063 69.0684 32.3409 78.6136L33.982 196.983C27.6549 195.24 22.5649 189.964 21.4239 183.092L0.2308 55.382C-1.33336 45.965 5.09636 36.9839 14.5134 35.4198V35.4133Z" fill="#6ACEA8"/>
</svg>
