<svg width="72" height="48" viewBox="0 0 72 48" fill="none" xmlns="http://www.w3.org/2000/svg">
<g filter="url(#filter0_b_5_8)">
<g filter="url(#filter1_b_5_8)">
<rect x="8" y="10" width="64" height="24" rx="12" fill="white" fill-opacity="0.1"/>
<rect x="8.5" y="10.5" width="63" height="23" rx="11.5" stroke="white" stroke-opacity="0.5"/>
</g>
<g filter="url(#filter2_d_5_8)">
<rect x="8" y="6" width="32" height="32" rx="16" fill="white" shape-rendering="crispEdges"/>
<path d="M29.5 21V18" stroke="black" stroke-linecap="round" stroke-linejoin="round"/>
<path d="M31 19.5H28" stroke="black" stroke-linecap="round" stroke-linejoin="round"/>
<path d="M26.5 15.5V17.5" stroke="black" stroke-linecap="round" stroke-linejoin="round"/>
<path d="M27.5 16.5H25.5" stroke="black" stroke-linecap="round" stroke-linejoin="round"/>
<path d="M29.5437 23.5375C28.562 23.8128 27.5248 23.8218 26.5384 23.5637C25.5521 23.3055 24.6523 22.7895 23.9314 22.0685C23.2105 21.3476 22.6944 20.4478 22.4363 19.4615C22.1781 18.4752 22.1871 17.4379 22.4624 16.4563C21.4946 16.7257 20.6142 17.2439 19.909 17.9594C19.2038 18.6749 18.6984 19.5627 18.443 20.5343C18.1877 21.506 18.1914 22.5276 18.4538 23.4973C18.7161 24.4671 19.228 25.3512 19.9384 26.0616C20.6488 26.7719 21.5329 27.2838 22.5026 27.5462C23.4724 27.8085 24.494 27.8122 25.4656 27.5569C26.4372 27.3016 27.325 26.7961 28.0405 26.0909C28.756 25.3857 29.2743 24.5054 29.5437 23.5375Z" stroke="black" stroke-linecap="round" stroke-linejoin="round"/>
</g>
</g>
<defs>
<filter id="filter0_b_5_8" x="4" y="-2" width="72" height="48" filterUnits="userSpaceOnUse" color-interpolation-filters="sRGB">
<feFlood flood-opacity="0" result="BackgroundImageFix"/>
<feGaussianBlur in="BackgroundImageFix" stdDeviation="2"/>
<feComposite in2="SourceAlpha" operator="in" result="effect1_backgroundBlur_5_8"/>
<feBlend mode="normal" in="SourceGraphic" in2="effect1_backgroundBlur_5_8" result="shape"/>
</filter>
<filter id="filter1_b_5_8" x="0" y="2" width="80" height="40" filterUnits="userSpaceOnUse" color-interpolation-filters="sRGB">
<feFlood flood-opacity="0" result="BackgroundImageFix"/>
<feGaussianBlur in="BackgroundImageFix" stdDeviation="4"/>
<feComposite in2="SourceAlpha" operator="in" result="effect1_backgroundBlur_5_8"/>
<feBlend mode="normal" in="SourceGraphic" in2="effect1_backgroundBlur_5_8" result="shape"/>
</filter>
<filter id="filter2_d_5_8" x="0" y="0" width="48" height="48" filterUnits="userSpaceOnUse" color-interpolation-filters="sRGB">
<feFlood flood-opacity="0" result="BackgroundImageFix"/>
<feColorMatrix in="SourceAlpha" type="matrix" values="0 0 0 0 0 0 0 0 0 0 0 0 0 0 0 0 0 0 127 0" result="hardAlpha"/>
<feOffset dy="2"/>
<feGaussianBlur stdDeviation="4"/>
<feComposite in2="hardAlpha" operator="out"/>
<feColorMatrix type="matrix" values="0 0 0 0 0 0 0 0 0 0 0 0 0 0 0 0 0 0 0.25 0"/>
<feBlend mode="normal" in2="BackgroundImageFix" result="effect1_dropShadow_5_8"/>
<feBlend mode="normal" in="SourceGraphic" in2="effect1_dropShadow_5_8" result="shape"/>
</filter>
</defs>
</svg>
