<svg width="99" height="99" viewBox="0 0 99 99" fill="none" xmlns="http://www.w3.org/2000/svg">
<path d="M77.4846 25.8557H83.0379C82.2621 24.7532 81.4454 23.7323 80.5879 22.7115L77.4846 25.8557ZM76.3045 18.3832C75.2837 17.5257 74.2628 16.709 73.1603 15.9332V21.4865L76.3045 18.3832ZM80.6328 22.7156L92.6787 10.6698C93.8628 9.4856 93.8628 7.5256 92.6787 6.34143C92.1023 5.77189 91.3247 5.45248 90.5145 5.45248C89.7042 5.45248 88.9266 5.77189 88.3503 6.34143L76.3045 18.3873C77.8562 19.7348 79.2853 21.2048 80.6328 22.7156ZM73.1685 12.5848C73.1685 10.9107 71.7802 9.52235 70.106 9.52235C68.4727 9.52235 67.166 10.829 67.0843 12.4215C69.2076 13.4423 71.2493 14.5857 73.1685 15.9332V12.5848ZM89.5018 28.9182C89.5018 27.244 88.1135 25.8557 86.4393 25.8557H83.0502C84.3977 27.7749 85.5818 29.8165 86.5618 31.9398C88.1952 31.8582 89.5018 30.5515 89.5018 28.9182ZM52.7437 60.564H53.9687C55.5612 60.564 56.827 59.1348 56.827 57.379C56.827 55.174 56.2145 54.8473 54.8262 54.3573L52.7437 53.6223V60.564Z" fill="#763BE3"/>
<path d="M86.5945 31.9399C86.5536 31.9399 86.5128 31.9807 86.4311 31.9807H70.0978C69.6894 31.9807 69.3219 31.899 68.9136 31.7357C68.1616 31.4128 67.5623 30.8135 67.2394 30.0615C67.109 29.6942 67.04 29.3079 67.0353 28.9182V12.5849C67.0353 12.544 67.0761 12.5032 67.0761 12.4215C61.7678 9.93069 55.8878 8.50152 49.6811 8.50152C27.1411 8.50152 8.84778 26.7949 8.84778 49.3349C8.84778 71.8749 27.1411 90.1682 49.6811 90.1682C72.2211 90.1682 90.5145 71.8749 90.5145 49.3349C90.5145 43.1282 89.0853 37.2482 86.5945 31.9399ZM56.8269 48.5999C59.4403 49.4982 62.9519 51.4174 62.9519 57.4199C62.9519 62.524 58.9094 66.7299 53.9686 66.7299H52.7436V67.7507C52.7436 69.4249 51.3553 70.8132 49.6811 70.8132C48.0069 70.8132 46.6186 69.4249 46.6186 67.7507V66.7299H46.2919C40.8611 66.7299 36.4103 62.1565 36.4103 56.5215C36.4103 54.8065 37.7986 53.4182 39.4728 53.4182C41.1469 53.4182 42.5353 54.8065 42.5353 56.4807C42.5353 58.7265 44.2094 60.564 46.2919 60.564H46.6186V51.499L42.5353 50.0699C39.9219 49.1715 36.4103 47.2524 36.4103 41.2499C36.4103 36.1457 40.4528 31.9399 45.3936 31.9399H46.6186V30.9599C46.6186 29.2857 48.0069 27.8974 49.6811 27.8974C51.3553 27.8974 52.7436 29.2857 52.7436 30.9599V31.9807H53.0703C58.5011 31.9807 62.9519 36.554 62.9519 42.189C62.9519 43.8632 61.5636 45.2515 59.8894 45.2515C58.2153 45.2515 56.8269 43.8632 56.8269 42.189C56.8269 39.9432 55.1528 38.1057 53.0703 38.1057H52.7436V47.1707L56.8269 48.5999Z" fill="#763BE3"/>
<path d="M42.5353 41.2907C42.5353 43.4957 43.1478 43.8224 44.5361 44.3124L46.6186 45.0473V38.1057H45.3936C43.8419 38.1057 42.5353 39.5348 42.5353 41.2907Z" fill="#763BE3"/>
</svg>
